<?xml version="1.0" standalone="no"?>
<!DOCTYPE svg PUBLIC "-//W3C//DTD SVG 20010904//EN"
 "http://www.w3.org/TR/2001/REC-SVG-20010904/DTD/svg10.dtd">
<svg version="1.0" xmlns="http://www.w3.org/2000/svg"
 width="300.000000pt" height="168.000000pt" viewBox="0 0 300.000000 168.000000"
 preserveAspectRatio="xMidYMid meet">

<g transform="translate(0.000000,168.000000) scale(0.100000,-0.100000)"
fill="#000000" stroke="none">
<path d="M1377 1414 c-382 -82 -581 -501 -401 -844 114 -218 365 -348 599
-312 202 31 359 141 449 312 133 253 61 567 -167 737 -78 58 -145 88 -240 107
-92 19 -150 19 -240 0z m310 -33 c176 -61 303 -190 365 -371 32 -92 32 -248 0
-340 -62 -181 -189 -310 -365 -371 -70 -25 -97 -29 -187 -29 -90 0 -117 4
-187 29 -176 61 -303 190 -365 371 -32 92 -32 248 0 340 62 181 189 310 365
371 70 25 97 29 187 29 90 0 117 -4 187 -29z"/>
<path d="M1425 1380 c-20 -8 -17 -11 23 -22 10 -3 8 -10 -7 -30 -25 -32 -28
-63 -5 -54 9 3 31 6 51 6 23 0 33 4 30 13 -2 7 -16 11 -32 9 l-29 -4 27 35
c15 20 27 40 27 46 0 13 -56 13 -85 1z"/>
<path d="M1560 1337 c-6 -28 -7 -54 -3 -58 5 -3 25 -10 47 -13 29 -6 37 -4 34
6 -3 7 -14 14 -26 16 -12 2 -22 8 -22 14 0 6 11 8 25 6 17 -4 25 -1 25 8 0 8
-9 14 -19 14 -11 0 -23 5 -27 12 -5 8 3 9 29 5 55 -9 48 17 -7 30 l-45 10 -11
-50z"/>
<path d="M1332 1362 c-10 -7 -10 -16 2 -44 9 -19 12 -38 9 -42 -15 -15 -32 -3
-43 29 -14 43 -46 50 -35 8 16 -68 49 -88 93 -57 26 18 27 27 4 76 -12 26 -21
35 -30 30z"/>
<path d="M1692 1295 c-26 -54 -26 -51 -7 -59 10 -3 21 9 35 41 23 53 25 63 7
63 -7 0 -23 -20 -35 -45z"/>
<path d="M1763 1257 c-20 -27 -29 -45 -23 -51 7 -7 14 -6 22 2 23 23 41 14 35
-18 -8 -38 19 -42 33 -5 5 14 14 25 19 25 25 0 19 33 -11 61 -18 16 -35 29
-38 29 -3 -1 -19 -20 -37 -43z m65 -15 c2 -7 -3 -12 -12 -12 -9 0 -16 7 -16
16 0 17 22 14 28 -4z"/>
<path d="M1152 1264 l-32 -26 31 -39 c17 -21 37 -39 45 -39 17 0 18 12 2 28
-9 9 -9 15 0 24 10 10 17 10 33 -1 32 -20 48 3 16 24 -14 9 -27 25 -30 35 -7
27 -26 25 -65 -6z m38 -34 c-20 -12 -33 -1 -19 16 9 11 15 12 23 4 8 -8 7 -13
-4 -20z"/>
<path d="M1385 1237 c-118 -40 -207 -117 -258 -225 -30 -62 -32 -75 -32 -172
0 -97 2 -110 32 -172 41 -88 113 -160 201 -201 62 -30 75 -32 172 -32 97 0
110 2 172 32 88 41 160 113 201 201 30 62 32 75 32 172 0 97 -2 110 -32 172
-41 88 -113 160 -201 201 -57 27 -80 32 -157 34 -55 2 -105 -2 -130 -10z m154
-107 c25 -1 25 -1 7 -15 -13 -10 -17 -21 -12 -40 7 -26 6 -26 -15 -11 -19 13
-24 13 -46 -1 -23 -15 -23 -15 -14 10 9 22 7 29 -12 42 l-21 15 27 0 c21 0 28
6 34 28 l7 27 10 -27 c7 -21 17 -28 35 -28z m-256 -180 c3 -13 14 -20 28 -20
21 0 21 -1 6 -18 -10 -11 -14 -26 -10 -41 5 -21 4 -22 -16 -10 -17 12 -25 12
-42 1 -20 -13 -21 -12 -15 12 5 19 1 29 -16 40 l-22 16 28 0 c19 0 29 6 33 20
3 11 9 20 13 20 4 0 10 -9 13 -20z m494 -20 l28 0 -22 -18 c-17 -12 -21 -23
-16 -41 5 -22 4 -22 -17 -11 -16 9 -25 9 -33 1 -18 -18 -28 -12 -21 14 4 18 1
27 -10 31 -24 9 -19 24 8 24 16 0 26 7 30 23 l7 22 9 -22 c7 -16 18 -23 37
-23z m-180 -90 c13 0 13 -3 3 -15 -7 -8 -10 -22 -6 -30 6 -17 -9 -21 -19 -5
-4 7 -13 7 -25 0 -16 -9 -18 -8 -14 5 4 8 1 22 -6 30 -10 12 -9 15 4 15 9 0
19 7 23 16 5 15 7 15 15 0 5 -9 16 -16 25 -16z m-48 -260 c25 -1 25 -1 7 -15
-14 -10 -17 -21 -12 -41 7 -27 7 -27 -18 -11 -21 14 -26 14 -36 2 -19 -23 -30
-18 -20 10 8 20 5 27 -13 40 l-21 15 27 0 c21 0 28 6 34 28 l7 27 10 -27 c7
-21 17 -28 35 -28z"/>
<path d="M1045 1146 c-38 -57 43 -118 89 -67 18 20 19 62 1 62 -5 0 -11 -12
-13 -26 -4 -27 -29 -34 -50 -13 -18 18 -15 35 8 41 26 7 26 27 0 27 -11 0 -27
-11 -35 -24z"/>
<path d="M1867 1152 c-22 -24 -21 -55 1 -75 32 -29 78 -19 93 21 21 56 -54 98
-94 54z m73 -26 c0 -18 -21 -36 -42 -36 -23 0 -24 36 -1 48 20 12 43 5 43 -12z"/>
<path d="M950 885 c0 -51 17 -61 26 -15 4 16 10 28 14 25 4 -2 5 -16 2 -30 -3
-18 0 -25 12 -25 10 0 16 9 16 25 0 14 5 25 11 25 7 0 8 -11 4 -30 -5 -23 -3
-30 8 -30 10 0 16 13 18 44 l4 44 -44 6 c-72 10 -71 10 -71 -39z"/>
<path d="M2017 893 l-3 -38 -8 33 c-11 41 -26 42 -26 1 0 -17 -4 -28 -10 -24
-5 3 -10 17 -10 31 0 13 -4 24 -10 24 -5 0 -10 -20 -10 -45 l0 -45 39 0 c63 0
71 7 71 56 0 57 -27 63 -33 7z"/>
<path d="M967 783 c-13 -13 -7 -71 9 -84 21 -18 48 0 52 35 2 14 8 26 13 26 6
0 8 -9 4 -19 -7 -23 13 -39 21 -17 12 31 -5 66 -31 66 -20 0 -25 -6 -31 -35
-3 -19 -11 -35 -16 -35 -6 0 -8 14 -4 35 6 32 -1 44 -17 28z"/>
<path d="M1943 778 c-6 -7 -13 -27 -16 -45 -6 -31 -5 -31 44 -43 28 -7 53 -10
56 -6 4 3 7 25 7 48 1 40 -1 43 -26 43 -15 1 -30 4 -34 8 -11 10 -20 9 -31 -5z
m30 -43 c-3 -8 -9 -15 -14 -15 -10 0 -12 24 -3 33 11 11 24 -3 17 -18z m47 11
c0 -15 -14 -35 -21 -30 -15 9 -10 34 6 34 8 0 15 -2 15 -4z"/>
<path d="M1032 657 c-43 -22 -51 -44 -14 -40 13 2 23 -5 27 -16 11 -36 59 -36
70 -1 6 19 -19 81 -33 79 -4 0 -26 -10 -50 -22z m53 -35 c0 -18 -20 -15 -23 4
-3 10 1 15 10 12 7 -3 13 -10 13 -16z"/>
<path d="M1900 655 c-10 -12 -5 -18 24 -32 34 -16 44 -32 30 -46 -4 -3 -23 3
-44 13 -31 16 -39 17 -43 5 -4 -8 7 -21 29 -34 43 -26 56 -26 78 -2 26 28 16
61 -26 87 -31 20 -38 21 -48 9z"/>
<path d="M1102 538 c-20 -20 -15 -76 7 -88 45 -24 91 2 91 51 0 33 -18 49 -55
49 -17 0 -36 -5 -43 -12z m63 -39 c0 -26 -29 -39 -48 -20 -7 7 -5 16 8 31 23
25 40 21 40 -11z"/>
<path d="M1792 512 c-8 -6 0 -20 28 -47 l40 -39 27 27 c30 29 26 46 -6 25 -18
-11 -24 -9 -48 14 -17 17 -33 24 -41 20z"/>
<path d="M1222 431 c-12 -21 -22 -44 -22 -50 0 -17 27 -13 34 5 9 23 38 -2 31
-26 -3 -10 0 -20 9 -23 9 -4 16 3 21 20 3 14 12 32 20 39 19 19 9 41 -26 59
-39 21 -43 20 -67 -24z m63 -2 c10 -15 -1 -23 -20 -15 -9 3 -13 10 -10 16 8
13 22 13 30 -1z"/>
<path d="M1704 446 c-26 -22 -27 -25 -15 -54 14 -34 39 -47 71 -37 26 8 45 44
32 57 -7 7 -14 3 -21 -11 -15 -27 -37 -27 -51 -1 -14 26 -4 43 21 37 23 -6 37
12 18 24 -20 13 -25 11 -55 -15z"/>
<path d="M1360 406 c0 -9 5 -16 11 -16 8 0 9 -15 5 -45 -6 -37 -4 -45 8 -45
11 0 18 13 22 40 5 30 11 40 25 40 29 0 23 19 -8 26 -16 3 -36 8 -45 11 -12 3
-18 -1 -18 -11z"/>
<path d="M1484 363 c3 -21 6 -46 6 -55 0 -15 9 -18 45 -18 33 0 45 4 45 15 0
10 -11 15 -32 16 l-33 1 28 11 c36 14 34 27 -4 27 -17 0 -28 4 -24 10 3 6 17
10 31 10 13 0 24 5 24 10 0 6 -21 10 -46 10 l-47 0 7 -37z"/>
</g>
</svg>
